<?xml version="1.0" encoding="UTF-8"?>
<svg id="svg5" xmlns="http://www.w3.org/2000/svg" xmlns:svg="http://www.w3.org/2000/svg" version="1.1" viewBox="0 0 493.32 284">
  <!-- Generator: Adobe Illustrator 30.0.0, SVG Export Plug-In . SVG Version: 2.1.1 Build 123)  -->
  <g id="layer1">
    <path id="path857" d="M278.26,143.11c0,77.37-62.29,140.09-139.13,140.09S0,220.5,0,143.11,62.29,3.03,139.13,3.03s139.13,62.72,139.13,140.08M430.89,143.11c0,72.83-31.15,131.87-69.57,131.87s-69.57-59.06-69.57-131.87S322.91,11.24,361.33,11.24s69.57,59.06,69.57,131.87M493.32,143.11c0,65.25-10.96,118.15-24.47,118.15s-24.47-52.91-24.47-118.15,10.96-118.15,24.47-118.15,24.46,52.9,24.46,118.15"/>
  </g>
</svg>